<?xml version="1.0" encoding="utf-8"?>
<!-- Generator: Adobe Illustrator 27.9.0, SVG Export Plug-In . SVG Version: 6.00 Build 0)  -->
<svg version="1.1" id="Ebene_1" xmlns="http://www.w3.org/2000/svg" xmlns:xlink="http://www.w3.org/1999/xlink" x="0px" y="0px"
	 viewBox="0 0 595.3 841.9" style="enable-background:new 0 0 595.3 841.9;" xml:space="preserve">
<style type="text/css">
	.st0{fill:#FFFFFF;}
</style>
<g>
	<g>
		<path class="st0" d="M479,164.9c9.3,2.7,17.4,7,23.1,15.4c5.4,8,5.7,17.3,6.8,26.3c3.3,27.9,6.4,55.9,9.6,83.8
			c2,17.6-9.9,34.2-27.3,37.4c-33,6.1-66.1,12-99.2,17.8c-17.7,3.1-35.6-10.1-38.8-28.2c-3.1-18.1,9.1-35.9,27.1-39.5
			c5.7-1.1,11.5-2.1,18.5-3.3c-4.6-2.7-8.2-5-11.8-7c-63.2-34.8-140.7-28.2-197.4,16.8c-33.4,26.5-56.7,59.7-66.7,101.5
			c-11.3,47-3.5,91.2,21.3,132.4c19.6,32.6,46.1,58,81,74c39.4,18.1,80.2,20.3,121.8,9c31-8.4,58.9-22.7,82.2-45.1
			c27.1-26.1,43.1-57.9,47.7-95.3c0.7-5.9,0.9-11.9,1.1-17.9c0.4-18.5,13.1-33.1,30.6-35c18.2-2,33.6,9.5,37.7,28.2
			c0.1,0.6,0.5,1.2,0.7,1.8c0,5,0,10,0,15c-0.3,1.6-0.7,3.2-0.8,4.8c-2.4,39.4-14.6,75.7-36.4,108.4
			c-40.2,60.3-98.2,93.2-168.2,106.9c-9.1,1.8-18.3,2.7-27.5,3.9c-10.7,0-21.3,0-32,0c-1.4-0.3-2.9-0.6-4.3-0.9
			c-15.4-2.8-31.1-4.3-46-8.5c-53.8-15-96.8-46-130.5-90.3c-26.6-35-43.5-74-49.6-117.6c-1-7.5-1.8-15.1-2.6-22.7c0-7,0-14,0-21
			c0.3-1.6,0.8-3.2,0.8-4.8c1.3-25,6.8-49,15.9-72.3c16.8-43,43.4-78.9,79.9-107c79.3-61,165.4-71,257.3-32.6
			c13.1,5.5,25.3,13.2,38,19.9c-0.5-4.4-1-9.1-1.6-13.9c-1.8-14.1,2.7-25.7,14.3-34c3.9-2.8,8.9-4.3,13.4-6.3
			C471,164.9,475,164.9,479,164.9z"/>
	</g>
</g>
</svg>
