<?xml version="1.0" encoding="UTF-8"?>
<svg xmlns="http://www.w3.org/2000/svg" xmlns:xlink="http://www.w3.org/1999/xlink" viewBox="0 0 256.65 146.86">
  <defs>
    <style>
      .cls-1 {
        fill: #baaea4;
      }

      .cls-2 {
        fill: #fee3c8;
      }

      .cls-3 {
        fill: url(#Unbenannter_Verlauf_265);
        opacity: .43;
      }

      .cls-3, .cls-4, .cls-5, .cls-6 {
        mix-blend-mode: multiply;
      }

      .cls-7 {
        fill: #fff;
      }

      .cls-8 {
        fill: #873e3e;
      }

      .cls-9 {
        fill: #826d5a;
      }

      .cls-10 {
        fill: #efcaa8;
      }

      .cls-11, .cls-6 {
        fill: #c4bdb7;
      }

      .cls-12 {
        fill: #e5e5e5;
      }

      .cls-13 {
        fill: #7c3333;
      }

      .cls-14 {
        fill: #a0a0a0;
      }

      .cls-15 {
        isolation: isolate;
      }

      .cls-16 {
        fill: #3a3a3a;
      }

      .cls-17 {
        fill: url(#Weiß_Schwarz);
      }

      .cls-4 {
        fill: url(#Unbenannter_Verlauf);
        opacity: .53;
      }

      .cls-18 {
        fill: #6d5353;
      }

      .cls-5 {
        opacity: .39;
      }

      .cls-19 {
        fill: #f7d8bc;
      }

      .cls-19, .cls-20 {
        opacity: .69;
      }

      .cls-21 {
        stroke: #fff;
        stroke-width: 1.02px;
      }

      .cls-21, .cls-22 {
        fill: none;
        stroke-linecap: round;
        stroke-miterlimit: 10;
      }

      .cls-23 {
        fill: #d8c9ba;
      }

      .cls-22 {
        stroke: #212121;
        stroke-width: .75px;
      }

      .cls-24 {
        fill: #212121;
      }
    </style>
    <linearGradient id="Unbenannter_Verlauf" data-name="Unbenannter Verlauf" x1="5.37" y1="75.26" x2="223.99" y2="75.26" gradientUnits="userSpaceOnUse">
      <stop offset="0" stop-color="#fff"/>
      <stop offset="1" stop-color="#000"/>
    </linearGradient>
    <linearGradient id="Weiß_Schwarz" data-name="Weiß, Schwarz" x1="78.71" y1="18.92" x2="79.96" y2="69.43" gradientTransform="translate(183.02) rotate(-180) scale(1 -1)" gradientUnits="userSpaceOnUse">
      <stop offset="0" stop-color="#fff"/>
      <stop offset="1" stop-color="#000"/>
    </linearGradient>
    <linearGradient id="Unbenannter_Verlauf_265" data-name="Unbenannter Verlauf 265" x1="59.19" y1="46.74" x2="78.33" y2="46.74" gradientTransform="translate(183.02) rotate(-180) scale(1 -1)" gradientUnits="userSpaceOnUse">
      <stop offset="0" stop-color="#000"/>
      <stop offset="1" stop-color="#fff"/>
    </linearGradient>
  </defs>
  <g class="cls-15">
    <g id="Ebene_1">
      <path class="cls-19" d="M15.18,139.8c6.99-8.6,8.35-21.38,3.32-31.25-4.61-9.06-14.07-15.96-15.16-26.06-.94-8.68,4.85-16.75,11.68-22.18,6.83-5.43,14.92-9.17,21.51-14.89,10.81-9.38,17-23.53,28.81-31.62,10.13-6.94,23.82-8.36,35.16-3.63,14.63,6.1,24.7,21.23,40.12,24.93,16.19,3.89,35.63-5.54,48.71,4.76,10.5,8.27,10.03,24.37,17.11,35.7,4.44,7.11,11.81,12.21,15.38,19.8,4.16,8.85,5.57,15.04,2.29,25.27-2.61,8.14-8.89,15.16-15.19,17.52s-13.18,2.49-19.91,2.59c-57.53.86-115.07.72-172.59-.42l-1.24-.51Z"/>
      <g class="cls-20">
        <path class="cls-2" d="M17.1,140.25c6.86-8.54,8.19-21.23,3.25-31.04-4.53-9-13.82-15.85-14.89-25.89-.92-8.62,4.76-16.63,11.47-22.02,6.71-5.39,14.64-9.1,21.11-14.78,10.61-9.31,16.69-23.37,28.28-31.4,9.95-6.89,23.39-8.3,34.52-3.6,14.37,6.06,24.25,21.09,39.39,24.76,15.89,3.86,34.98-5.5,47.82,4.73,10.31,8.22,9.85,24.2,16.81,35.46,4.36,7.06,11.6,12.13,15.1,19.67,4.08,8.79,5.47,14.94,2.25,25.09-2.56,8.08-8.72,15.06-14.91,17.39s-12.94,2.47-19.55,2.57c-56.47.84-112.96.7-169.43-.44l-1.21-.51Z"/>
        <path class="cls-4" d="M17.1,140.25c6.86-8.54,8.19-21.23,3.25-31.04-4.53-9-13.82-15.85-14.89-25.89-.92-8.62,4.76-16.63,11.47-22.02,6.71-5.39,14.64-9.1,21.11-14.78,10.61-9.31,16.69-23.37,28.28-31.4,9.95-6.89,23.39-8.3,34.52-3.6,14.37,6.06,24.25,21.09,39.39,24.76,15.89,3.86,34.98-5.5,47.82,4.73,10.31,8.22,9.85,24.2,16.81,35.46,4.36,7.06,11.6,12.13,15.1,19.67,4.08,8.79,5.47,14.94,2.25,25.09-2.56,8.08-8.72,15.06-14.91,17.39s-12.94,2.47-19.55,2.57c-56.47.84-112.96.7-169.43-.44l-1.21-.51Z"/>
      </g>
      <rect class="cls-16" x="12.82" y="136.75" width="216.04" height="6.89" rx="3.39" ry="3.39" transform="translate(241.69 280.39) rotate(-180)"/>
      <g id="Person">
        <g>
          <path class="cls-24" d="M79.33,114.8c4.59,3.84,12.36,2.45,15.43-2.77,3.73,5.73,2.9,13.71-.88,19.19-1.37,1.99-4.89,6.07-7.58,5.94-3.05-.14-6.66-5.5-7.97-7.96-2.11-3.97-2.85-8.54-3.56-13-1.86-11.79-3.22-25.47,4.69-34.19,6.17-6.8,16.06-8.18,25.08-8,11.29.22,23.87,3.12,29.98,12.92,2.9,4.65,3.92,10.24,4.89,15.68,1.63,9.18,3.26,18.36,4.89,27.54.33,1.87.56,4.09-.76,5.4-.99.98-2.48,1.08-3.85,1.12-15.35.5-30.67.66-46.05.54l-7.34-.05"/>
          <path d="M79.33,114.8c4.66,3.87,12.55,2.27,15.42-3.01,1.55,2.33,2.43,5.1,2.57,7.9.24,4.1-.94,8.27-3.22,11.68-2.21,2.86-6.04,7.98-10.03,5.24-9.12-6.93-9.53-19.45-10.85-29.9-1.47-14.77,2.62-28.45,18.67-32.03,8.01-1.76,16.4-1.51,24.4.18,7.94,1.7,15.97,6.09,19.63,13.68,3.47,7.15,4.01,16.05,5.59,23.76,0,0,2.8,16,2.8,16,1.05,4.98,1.2,8.9-5.19,8.68-17.59.57-35.21.47-52.81.18,16.25.05,32.49-.13,48.73-.63,0,0,4.06-.13,4.06-.13,2.88.05,5.35-.61,5.15-4.01-.17-2.56-3-17.1-3.45-19.96-.95-4.67-1.89-11.38-2.99-15.94-2.35-11.7-10.3-18.27-21.72-20.68-7.84-1.59-16.13-1.91-23.98-.22-15.6,3.37-19.52,16.72-18.16,31.07.21,2.69.55,5.37.95,8.04.91,6.61,2.1,13.52,6.62,18.71,3.36,4.11,5.7,4.7,9.58.74,3.85-3.72,6.12-9.06,5.87-14.44-.09-2.68-.87-5.33-2.3-7.61h.21c-3.07,5.18-10.93,6.62-15.54,2.7h0Z"/>
        </g>
        <path d="M126.45,137.11c-.23-6.5,1.67-12.83,2.71-19.18,1.38-10.63,2.43-21.44,1.02-32.12,2.35,10.6,1.42,21.62-.13,32.27-1.11,6.38-3.25,12.53-3.61,19.04h0Z"/>
        <path class="cls-23" d="M112.79,71.57l-.16,7.61s-1.89,3.71-6.76,3.71-8.22-4.04-8.22-4.04l.31-13.29,14.83,6.01Z"/>
        <path class="cls-1" d="M108.69,74.3c1.27.54,2.73.38,3.82-.49,7.17-5.68,10.84-14.85,9.13-24.15-1.86-10.07-14.26-17.37-22.48-11.63-2.93,2.04-5.13,5.46-6.1,8.72-4.76,16.13,2.85,21.71,15.63,27.55h0Z"/>
        <path class="cls-23" d="M109.66,73.3c1.27.54,2.73.38,3.82-.49,7.17-5.68,10.84-14.85,9.13-24.15-1.86-10.07-14.26-17.37-22.48-11.63-2.93,2.04-5.13,5.46-6.1,8.72-4.76,16.13,2.85,21.71,15.63,27.55h0Z"/>
        <g>
          <path class="cls-13" d="M97.77,74.17s1.77-4.46-.02-8.07c-3.62-7.28-3.07-14.65.86-18.46,3.31-3.22,8.36-5.97,8.06-10.65,9.76-.37,16.8,9.51,15.53,20.92-.67,6.05-6.08,12.74-9.4,15.36l-.05,1.4c0,.56,11.44,3.46,11.44,3.46,2.5-1.87.54-8.65,1.46-11.7,3.02-10.07,2.77-18.6-2.23-27.8-5-9.19-16.97-11.32-24.44-7.39-9.29,4.89-6.41,12.42-11.23,18.81-6.98,9.25-10.28,21.81-8.61,32.49,0,0,17.7-6.65,18.64-8.38Z"/>
          <g class="cls-5">
            <path class="cls-17" d="M97.77,74.17s1.77-4.46-.02-8.07c-3.62-7.28-3.07-14.65.86-18.46,3.31-3.22,8.36-5.97,8.06-10.65,9.76-.37,16.8,9.51,15.53,20.92-.67,6.05-6.08,12.74-9.4,15.36l-.05,1.4c0,.56,11.44,3.46,11.44,3.46,2.5-1.87.54-8.65,1.46-11.7,3.02-10.07,2.77-18.6-2.23-27.8-5-9.19-16.97-11.32-24.44-7.39-9.29,4.89-6.41,12.42-11.23,18.81-6.98,9.25-10.28,21.81-8.61,32.49,0,0,17.7-6.65,18.64-8.38Z"/>
          </g>
        </g>
        <path class="cls-22" d="M97.91,61.58s4.02,5.79,9.39,6.02"/>
        <rect class="cls-24" x="106.19" y="66.51" width="2.4" height="2.15" rx="1.03" ry="1.03"/>
        <ellipse class="cls-24" cx="96.06" cy="55.42" rx="4.4" ry="7.14"/>
        <path class="cls-1" d="M94.22,112.69c-1.52-6.41-2.75-11.3-4.27-17.71-1.38-5.83-3.04-12.4-1.05-18.03,1.59-4.48,7.83-5.63,12.26-4.47.18.05.28-.22.11-.31l-7.18-4c3.35-1.17,5.96-.57,9.6.14.12.02.17-.16.05-.19l-10.01-2.92c2.7-1.95,5.71-1.68,8.89-1.09.22.04.36-.19.16-.29-3.51-1.82-7.53-1.42-11.31-.18.68-2.3,1.82-4.5,3.74-5.85.26-.18.07-.61-.24-.53-5.26,1.34-7.04,9.05-8.36,14.82-3.34,14.65-5.39,28.22-6.36,43.24,4.5,2.01,10.16,1.23,13.58-2.11l.39-.51Z"/>
        <path class="cls-23" d="M93.83,113.21c-1.52-6.41-3.33-12.81-4.84-19.23-1.38-5.83-2.71-12.19-.25-17.62,2.19-4.81,8.09-5.17,12.52-4.02.18.05.28-.22.11-.31l-7.7-4.18c3.35-1.17,6.58-.36,10.21.35.12.02.17-.16.05-.19l-10.62-3.08c2.7-1.95,6.21-1.53,9.39-.94.22.04.32-.28.12-.38-3.51-1.82-7.94-1.48-11.72-.25.68-2.3,2.16-4.34,4.09-5.69.26-.18.07-.61-.24-.53-5.26,1.34-7.98,8.16-9.3,13.94-3.34,14.65-5.34,28.6-6.31,43.62,3.98,3.38,10.32,2.6,13.74-.74l.75-.75Z"/>
        <path class="cls-24" d="M121.98,51.04c2.1,1.1,2.45,3.13,2.28,5.66-.26,3.98-1.51,6.45-3.2,6.49-.01,0-.38-.15-.39-.15,1.76-3.77,2-7.76,1.31-12.01Z"/>
        <path class="cls-24" d="M93.55,50.15s.86-17.09,10.33-19.17,15.02,2.44,15.02,2.44l1.47,1.27s-8.02-3.99-14.43-1.88c-5.11,1.95-8.09,5.89-9.51,17.24l-2.87.11Z"/>
        <path class="cls-18" d="M104.84,34.03c1.37,5.1,4.73,11.45,9.82,14.53,4.92,2.98,7.45,7.14,7.93,12.41,3.65-11.8-1.45-26.65-16.58-27.44,0,0,.1-.14-.95.41l-.22.1Z"/>
        <g>
          <path class="cls-8" d="M104.69,33.33c.69,5.86,5.84,11.15,10.93,14.23,4.92,2.98,6.48,8.14,6.96,13.41,3.65-11.8-.49-27.65-15.61-28.44,0,0-1.01.16-2.06.7l-.22.1Z"/>
          <path class="cls-3" d="M104.69,33.33c.69,5.86,5.84,11.15,10.93,14.23,4.92,2.98,6.48,8.14,6.96,13.41,3.65-11.8-.49-27.65-15.61-28.44,0,0-1.01.16-2.06.7l-.22.1Z"/>
        </g>
      </g>
      <g id="PC">
        <polygon class="cls-14" points="100.94 136.5 124.16 136.41 123.93 139.03 100.92 138.03 100.94 136.5"/>
        <path class="cls-12" d="M101.67,136.97l18.83.46c.39,0,.71-.29.75-.69l3.5-40.37c.14-1.65,1.48-2.92,3.09-2.92h56.48c1.87,0,3.31,1.69,3.08,3.61l-5.09,41.47c-.05.38-.36.66-.73.66h-60.27l-19.68-.71c-.4-.01-.71-.36-.71-.77h0c0-.42.34-.75.75-.74Z"/>
        <path class="cls-16" d="M185.49,98.46l-4.85,38.89h-57.05l3.74-39.09c.14-1.45,1.32-2.55,2.73-2.55h53.1c1.42,0,2.52,1.3,2.34,2.75Z"/>
      </g>
      <g>
        <g>
          <path class="cls-9" d="M159.25,32.13h39.04c3.47,0,6.29,3.14,6.29,7.02v7.87c0,3.88-2.81,7.02-6.29,7.02h-33.84l-9.11,3.55,3.42-3.58c-3.24-.28-5.79-3.3-5.79-7v-7.87c0-3.88,2.81-7.02,6.29-7.02Z"/>
          <rect class="cls-9" x="163.86" y="44.79" width="35.89" height="2.37" rx="1.05" ry="1.05" transform="translate(363.61 91.95) rotate(-180)"/>
          <rect class="cls-9" x="158.4" y="40.94" width="41.37" height="2.37" rx="1.12" ry="1.12" transform="translate(358.17 84.25) rotate(180)"/>
          <rect class="cls-9" x="158.42" y="37.2" width="41.37" height="2.37" rx="1.12" ry="1.12" transform="translate(358.21 76.77) rotate(-180)"/>
        </g>
        <g>
          <path class="cls-10" d="M157.78,31.28h39.04c3.47,0,6.29,3.14,6.29,7.02v7.87c0,3.88-2.81,7.02-6.29,7.02h-33.84l-9.11,3.55,3.42-3.58c-3.24-.28-5.79-3.3-5.79-7v-7.87c0-3.88,2.81-7.02,6.29-7.02Z"/>
          <g>
            <rect class="cls-7" x="162.35" y="46.9" width="35.89" height="2.37" rx="1.05" ry="1.05" transform="translate(360.59 96.17) rotate(-180)"/>
            <rect class="cls-7" x="156.99" y="40.73" width="41.37" height="2.37" rx="1.12" ry="1.12" transform="translate(355.36 83.84) rotate(180)"/>
            <rect class="cls-7" x="156.83" y="34.85" width="41.37" height="2.37" rx="1.12" ry="1.12" transform="translate(355.02 72.08) rotate(-180)"/>
          </g>
        </g>
      </g>
      <g>
        <circle class="cls-9" cx="49.19" cy="50.5" r="14.72"/>
        <circle class="cls-10" cx="48.15" cy="50" r="14.72"/>
        <path class="cls-7" d="M43.25,39.24c8.28-3.59,16.94,2.59,16.73,11.12-.01.46-.3,2.85-.56,3.09-.34.32-.85.19-.93-.31.14-.7.27-1.39.41-2.09.44-4.7-2.36-9.29-6.71-11.04-3.94-1.59-8.66-.64-11.67,2.36-.42.52-.84,1.03-1.26,1.55-.38.25-.83.05-.88-.42-.03-.32,1.31-1.77,1.6-2.05.81-.77,2.26-1.78,3.28-2.22ZM40.15,43.6c-4.88,6.07-1.33,15.33,6.38,16.53.61.1,3.59.31,3.74-.37.19-.88-1.19-.41-2.06-.4-6.42.1-11.28-6.6-8.7-12.9,1.37-3.34,4.03-4.46,4.24-4.7.22-.26.06-.96-.67-.65-.78.33-2.36,1.8-2.92,2.49ZM46.37,40.83c.34.06,3.3-.8,6.59,1.18,5.68,3.43,5.95,11.43,1.02,15.31-.69.54-1.7.88-1.52,1.4.27.78,1.75-.44,2.11-.72,2.45-1.94,3.97-5.28,3.81-8.4-.24-4.84-3.85-8.96-8.63-9.7-.69-.11-3.02-.2-3.54.1-.33.19-.21.76.16.83ZM36.33,49.35c-.24,4.73,2.4,9.24,6.65,11.31,4.36,2.12,9.71,1.3,13.27-2.02.3-.28,1.69-1.78,1.66-2.11-.05-.47-.49-.67-.88-.42-.44.54-.89,1.08-1.33,1.62-3.38,3.3-8.69,4.02-12.81,1.72-3.8-2.11-6.04-6.51-5.47-10.84.13-.56.25-1.12.38-1.68-.06-.45-.48-.68-.88-.42-.3.2-.58,2.41-.61,2.84ZM41.78,47.91c.1.48,1.04,1.84,1.39,2.29,1.84,2.43,4.38,4.27,7.42,4.78.8.13,2.04.3,2.75-.09.48-.26,1.4-1.83,1.3-2.38-.14-.73-1.4-1.4-2.06-1.64-.78-.28-1.28-.36-1.65.52-.11.53-.23,1.07-.34,1.6-2.34-.51-4.58-1.87-5.77-3.99.52-.22,1.65-1.08,1.56-1.7-.1-.74-2.03-2.91-3.17-2.26-.3.17-1.63,1.97-1.44,2.87ZM46.92,58.59c4.24.58,8.75-2.09,9.7-6.86.13-.64.28-2.94-.05-3.39-.11-.15-.61-.19-.68.2-.05.28.66,2.69-.93,5.43-1.68,2.92-4.86,4.04-7.88,3.86-.28-.02-.51.08-.55.29-.04.21.13.45.39.47Z"/>
      </g>
      <g>
        <rect class="cls-9" x="85.4" y="6.26" width="19.67" height="14.16" rx="1.53" ry="1.53" transform="translate(-.72 6.96) rotate(-4.17)"/>
        <rect class="cls-10" x="84.89" y="5.74" width="19.67" height="14.16" rx="1.53" ry="1.53" transform="translate(-.68 6.92) rotate(-4.17)"/>
        <polyline class="cls-21" points="84.66 6.93 94.68 13.65 103.45 5.45"/>
      </g>
      <g>
        <path class="cls-8" d="M47.28,117.43s-.73-3.34.82-9.17c.44-1.65,4.56-8.77,5.98-9.56.86-.48,1.85-.74,2.78-.29,2.38,1.15,3.19-11.87,3.19-11.87,0,0,1.78,10.45.71,13.48-.62,1.76-2.19,2.34-3.4,2.53-2.26.34-3.34,3.26-1.82,5.09.02.03.05.06.07.08,2.39,2.78,1.11,6.04,1.11,6.04,0,0-1.94,2.1-4.1.95s-5.33,2.72-5.33,2.72Z"/>
        <path class="cls-8" d="M48.78,120.11s-5.93-21.12-15.45-23.16,1.11,6.04,1.11,6.04c0,0,2.17,2.78-3.23,2.81s7.16,5.77,10.42,9.47,7.15,4.84,7.15,4.84Z"/>
        <path class="cls-8" d="M45.09,103.6c0-.55-2.1-13.14,2.8-18.82s4.24-1.48,4.24-1.48c0,0-.47,9.13-1.81,12.06s-5.23,8.24-5.23,8.24Z"/>
        <path class="cls-8" d="M45.05,102.62s-1.15.68-4.14-4.62-6.79-1.79-6.79-1.79c0,0-2.55-1.05-2-4.55s-2.42-3.94-2.42-3.94c0,0-1.86-5,.4-5.32s5.11,5.29,5.11,5.29c0,0,3.59,6.46,4.71,5.09s5.12,9.83,5.12,9.83Z"/>
        <path class="cls-8" d="M41.33,89.95s-7.4-2.15-8.85-6.2c-.56-1.55-1.9-6.04-1.19-10.2.24-1.42.93-3.89,2.11-4.58.84-.48,1.81-.55,2.59.81.39.68.72,1.31,1,1.87.69,1.4,1.59,3,.57,4.14-.49.55-.68,2.16-.27,3.19.47,1.18.94,1.52,1.74,1.95,1.41.74,2.44,2.13,2.72,3.79s.33,3.58-.43,5.22Z"/>
        <path class="cls-16" d="M44.09,101.84c-1.21-1.86-2.42-3.72-3.53-5.64,0,0-.27-.49-.27-.49-.46-1.19-1.75-1.65-2.9-2-2.16-.75-3.75-2.65-4.41-4.77.53,1.37,1.4,2.61,2.59,3.46,1.59,1.33,4.27.93,5.24,3.02,1.26,2.01,2.7,3.93,4.1,5.85.39.54-.45,1.14-.82.57h0Z"/>
        <path class="cls-16" d="M46.38,116.79c.88-1.8,1.7-3.55,2.99-5.12.77-.72,1.17-1.35,1.55-2.29.34-.8.68-2.02.85-2.67.17-2.08.35-4.63,2.26-5.9,1.48-.86,3.23-.11,4.67-.9.45-.28.73-.77.88-1.27-.13.51-.39,1.02-.85,1.32-1.36.85-3.24.21-4.58,1.07-1.71,1.23-1.8,3.76-1.86,5.7-.19.98-.44,1.94-.78,2.88-.64,1.94-2.25,3.03-3.02,4.97-.43.86-.83,1.74-1.2,2.62-.11.25-.4.38-.65.27-.26-.11-.38-.42-.26-.67h0Z"/>
        <path class="cls-16" d="M46.96,129.39c-.6-9.93-1.24-19.87-3.08-29.64-1-4.84-2.3-9.71-4.81-13.97-1.19-2.22-3.32-3.72-4.46-5.98-1.19-2.3-.94-4.99-.32-7.37l.1.02c-.56,2.39-.72,5.03.48,7.22,1.18,2.19,3.37,3.68,4.61,5.86,2.66,4.3,4.06,9.2,5.18,14.06,2.08,9.69,3.12,20.09,2.31,29.8h0Z"/>
        <ellipse class="cls-6" cx="51.64" cy="138.84" rx="11.44" ry="1.02"/>
        <path class="cls-11" d="M54.81,138.5h-14.27l-2.9-21.98s4.78.76,9.71.76c5.26,0,10.7-.76,10.7-.76l-3.23,21.98Z"/>
        <path class="cls-12" d="M53.84,138.5h-14.27l-2.9-21.98s4.78.76,9.71.76c5.26,0,10.7-.76,10.7-.76l-3.23,21.98Z"/>
      </g>
      <path class="cls-16" d="M46.08,116.56c-1.75-3.56-5.15-5.95-7.15-9.32-1.26-2.21-1.99-4.53-3.53-6.58-.68-.92-1.29-2.05-2.36-2.56.57.19.97.67,1.38,1.09,1.17,1.34,2.15,2.83,3.1,4.33.5,1.21,1.13,2.37,1.83,3.47,1.37,2.3,3.56,3.79,5.24,5.84.86,1.03,1.65,2.08,2.37,3.25.15.24.07.54-.16.69-.25.15-.58.06-.71-.2h0Z"/>
      <path class="cls-16" d="M44.41,100.98c1.46-2.7,2.82-5.58,3.49-8.61.66-2.27.54-4.72,1.37-6.93.31-.72.72-1.43,1.29-1.96-.55.57-.91,1.28-1.18,2.01-.7,2.24-.45,4.68-1,6.98-.53,3.15-1.74,6.1-3.11,8.99-.12.25-.42.35-.67.23-.26-.13-.36-.46-.2-.71h0Z"/>
    </g>
  </g>
</svg>