<?xml version="1.0" encoding="UTF-8"?>
<svg id="Ebene_2" data-name="Ebene 2" xmlns="http://www.w3.org/2000/svg" version="1.1" xmlns:xlink="http://www.w3.org/1999/xlink" viewBox="0 0 343.26 54.53">
  <defs>
    <style>
      .cls-1 {
        fill: url(#Unbenannter_Verlauf_12-9);
      }

      .cls-1, .cls-2, .cls-3, .cls-4, .cls-5, .cls-6, .cls-7, .cls-8, .cls-9, .cls-10, .cls-11, .cls-12 {
        stroke-width: 0px;
      }

      .cls-2 {
        fill: url(#Unbenannter_Verlauf_12-11);
      }

      .cls-3 {
        fill: url(#Unbenannter_Verlauf_12-8);
      }

      .cls-4 {
        fill: url(#Unbenannter_Verlauf_12-10);
      }

      .cls-5 {
        fill: url(#Unbenannter_Verlauf_12-5);
      }

      .cls-6 {
        fill: url(#Unbenannter_Verlauf_12-2);
      }

      .cls-7 {
        fill: url(#Unbenannter_Verlauf_12);
      }

      .cls-8 {
        fill: url(#Unbenannter_Verlauf_12-7);
      }

      .cls-9 {
        fill: url(#Unbenannter_Verlauf_12-3);
      }

      .cls-10 {
        fill: url(#Unbenannter_Verlauf_12-6);
      }

      .cls-11 {
        fill: url(#Unbenannter_Verlauf_12-4);
      }

      .cls-12 {
        fill: url(#Unbenannter_Verlauf_12-12);
      }
    </style>
    <linearGradient id="Unbenannter_Verlauf_12" data-name="Unbenannter Verlauf 12" x1="47.5" y1="26.87" x2="68.85" y2="26.87" gradientUnits="userSpaceOnUse">
      <stop offset="0" stop-color="#009c8b"/>
      <stop offset="0" stop-color="#3f2d87"/>
      <stop offset=".47" stop-color="#932b87"/>
      <stop offset=".6" stop-color="#aa2b87"/>
      <stop offset=".67" stop-color="#af2879"/>
      <stop offset=".8" stop-color="#bc2056"/>
      <stop offset=".98" stop-color="#d2141e"/>
      <stop offset="1" stop-color="#d51317"/>
    </linearGradient>
    <linearGradient id="Unbenannter_Verlauf_12-2" data-name="Unbenannter Verlauf 12" x1="67.33" y1="28.33" x2="88.68" y2="28.33" xlink:href="#Unbenannter_Verlauf_12"/>
    <linearGradient id="Unbenannter_Verlauf_12-3" data-name="Unbenannter Verlauf 12" x1="88.03" x2="109.37" xlink:href="#Unbenannter_Verlauf_12"/>
    <linearGradient id="Unbenannter_Verlauf_12-4" data-name="Unbenannter Verlauf 12" x1="108.29" x2="129.63" xlink:href="#Unbenannter_Verlauf_12"/>
    <linearGradient id="Unbenannter_Verlauf_12-5" data-name="Unbenannter Verlauf 12" x1="128.55" x2="148.41" xlink:href="#Unbenannter_Verlauf_12"/>
    <linearGradient id="Unbenannter_Verlauf_12-6" data-name="Unbenannter Verlauf 12" x1="160.93" y1="27.66" x2="182.28" y2="27.66" xlink:href="#Unbenannter_Verlauf_12"/>
    <linearGradient id="Unbenannter_Verlauf_12-7" data-name="Unbenannter Verlauf 12" x1="181.2" y1="27.66" x2="202.54" y2="27.66" xlink:href="#Unbenannter_Verlauf_12"/>
    <linearGradient id="Unbenannter_Verlauf_12-8" data-name="Unbenannter Verlauf 12" x1="201.46" y1="27.66" x2="222.8" y2="27.66" xlink:href="#Unbenannter_Verlauf_12"/>
    <linearGradient id="Unbenannter_Verlauf_12-9" data-name="Unbenannter Verlauf 12" x1="221.72" y1="27.66" x2="243.06" y2="27.66" xlink:href="#Unbenannter_Verlauf_12"/>
    <linearGradient id="Unbenannter_Verlauf_12-10" data-name="Unbenannter Verlauf 12" x1="244.48" y1="29.13" x2="263.33" y2="29.13" xlink:href="#Unbenannter_Verlauf_12"/>
    <linearGradient id="Unbenannter_Verlauf_12-11" data-name="Unbenannter Verlauf 12" x1="262.25" y1="27.66" x2="282.11" y2="27.66" xlink:href="#Unbenannter_Verlauf_12"/>
    <linearGradient id="Unbenannter_Verlauf_12-12" data-name="Unbenannter Verlauf 12" x1="280.59" y1="29.13" x2="301.94" y2="29.13" xlink:href="#Unbenannter_Verlauf_12"/>
  </defs>
  <path class="cls-7" d="M57.05,24.15l-.06.52h10.38l-1.67,11.72-3.37,2.93h-14.83l1.05-7.32h10.38l.4-2.93h-10.38l.71-4.91h7.38ZM57.33,22.35l-.19,1.34h-7.41l.19-1.34h7.41ZM67.98,20.37l-.19,1.37h-17.79l.19-1.37h17.79ZM50.28,19.64l.19-1.28h17.82l-.19,1.28h-17.82ZM50.59,17.5l.03-.15,1.2-1.04h16.74l-.15,1.19h-17.82ZM53.09,15.21l.93-.79h14.83l-.12.79h-15.63Z"/>
  <path class="cls-6" d="M77.31,24.15l-.49,3.45h2.97l.49-3.45h7.44l-.71,4.91-3.4,2.93h-7.41l-1.45,10.25h-7.41l2.56-18.09h7.41ZM77.56,22.35l-.19,1.34h-7.41l.22-1.34h7.38ZM88.24,20.37l-.19,1.37h-17.82l.22-1.37h17.79ZM70.55,19.64l.19-1.28h17.79l-.19,1.28h-17.79ZM70.85,17.5l.15-1.19h16.77l.9,1.04-.03.15h-17.79ZM71.16,15.21l.12-.79h14.83l.68.79h-15.63ZM87.97,22.35l-.19,1.34h-7.44l.19-1.34h7.44Z"/>
  <path class="cls-9" d="M97.6,24.15l-.49,3.45h2.97l.49-3.45h7.41l-2.16,15.16h-7.41l1.05-7.32h-2.97l-1.05,7.32h-7.41l2.16-15.16h7.41ZM98.72,22.35l-.99.85-.06.49h-7.41l.19-1.34h8.28ZM108.54,20.37l-.22,1.37h-17.79l.22-1.37h17.79ZM91.49,19.64l1.48-1.28h15.85l-.19,1.28h-17.14ZM93.96,17.5l1.36-1.19h13.78l-.15,1.19h-14.98ZM96.58,15.21l.93-.79h11.86l-.12.79h-12.66ZM108.23,22.35l-.19,1.34h-7.41l.19-1.34h7.41Z"/>
  <path class="cls-11" d="M117.87,24.15l-1.11,7.84h2.97l.4-2.93h7.41l-1.05,7.32-3.37,2.93h-14.83l2.16-15.16h7.41ZM118.11,22.35l-.19,1.34h-7.41l.19-1.34h7.41ZM128.77,20.37l-.19,1.37h-17.79l.19-1.37h17.79ZM111.07,19.64l.19-1.28h17.82l-.19,1.28h-17.82ZM111.38,17.5l.03-.15,1.2-1.04h16.74l-.15,1.19h-17.82ZM113.88,15.21l.93-.79h14.83l-.12.79h-15.63ZM128.21,24.15l-.06.52h-7.41l.06-.52h7.41ZM128.49,22.35l-.19,1.34h-7.41l.19-1.34h7.41Z"/>
  <path class="cls-5" d="M138.1,24.15l-.06.52h5.93l-.62,4.39h-5.93l-.4,2.93h8.9l-1.05,7.32h-16.31l2.16-15.16h7.38ZM138.38,22.35l-.19,1.34h-7.41l.19-1.34h7.41ZM147.55,20.37l-.19,1.37h-16.31l.22-1.37h16.28ZM131.36,19.64l.19-1.28h16.31l-.19,1.28h-16.31ZM131.67,17.5l.15-1.19h16.31l-.15,1.19h-16.31ZM131.98,15.21l.12-.79h16.31l-.12.79h-16.31Z"/>
  <g>
    <path class="cls-10" d="M170.48,24.95l-.06.52h10.38l-1.67,11.72-3.37,2.93h-14.83l1.05-7.32h10.38l.4-2.93h-10.38l.71-4.91h7.38ZM170.76,23.15l-.19,1.34h-7.41l.19-1.34h7.41ZM181.41,21.16l-.19,1.37h-17.79l.19-1.37h17.79ZM163.71,20.43l.19-1.28h17.82l-.19,1.28h-17.82ZM164.02,18.29l.03-.15,1.2-1.04h16.74l-.15,1.19h-17.82ZM166.52,16.01l.93-.79h14.83l-.12.79h-15.63Z"/>
    <path class="cls-8" d="M201.15,24.95l-2.16,15.16h-7.41l1.45-10.25h-2.97l-1.45,10.25h-7.41l2.16-15.16h7.38l-.06.52h2.97l.06-.52h7.44ZM191.02,23.15l-.22,1.34h-7.38l.19-1.34h7.41ZM183.7,22.54l.22-1.37h7.38l-.22,1.37h-7.38ZM184.01,20.43l.19-1.28h7.38l-.19,1.28h-7.38ZM184.31,18.29l.15-1.19h7.38l-.15,1.19h-7.38ZM184.62,16.01l.12-.79h7.38l-.12.79h-7.38ZM201.4,23.15l-.19,1.34h-7.41l.19-1.34h7.41ZM201.7,21.16l-.22,1.37h-7.41l.19-1.37h7.44ZM194.38,20.43l.19-1.28h7.41l-.19,1.28h-7.41ZM194.69,18.29l.15-1.19h7.41l-.15,1.19h-7.41ZM195,16.01l.12-.79h7.41l-.12.79h-7.41Z"/>
    <path class="cls-3" d="M211.03,24.95l-1.11,7.84h2.97l1.11-7.84h7.41l-1.76,12.24-3.37,2.93h-14.83l2.16-15.16h7.41ZM211.28,23.15l-.19,1.34h-7.41l.19-1.34h7.41ZM221.94,21.16l-.19,1.37h-17.79l.19-1.37h17.79ZM204.24,20.43l.19-1.28h17.82l-.19,1.28h-17.82ZM204.55,18.29l.03-.15,1.2-1.04h16.74l-.15,1.19h-17.82ZM207.05,16.01l.93-.79h14.83l-.12.79h-15.63ZM221.66,23.15l-.19,1.34h-7.41l.19-1.34h7.41Z"/>
    <path class="cls-1" d="M231.3,24.95l-1.11,7.84h2.97l1.11-7.84h7.41l-1.76,12.24-3.37,2.93h-14.83l2.16-15.16h7.41ZM231.54,23.15l-.19,1.34h-7.41l.19-1.34h7.41ZM242.2,21.16l-.19,1.37h-17.79l.19-1.37h17.79ZM224.5,20.43l.19-1.28h17.82l-.19,1.28h-17.82ZM224.81,18.29l.03-.15,1.2-1.04h16.74l-.15,1.19h-17.82ZM227.31,16.01l.93-.79h14.83l-.12.79h-15.63ZM241.92,23.15l-.19,1.34h-7.41l.19-1.34h7.41Z"/>
    <path class="cls-4" d="M262.46,21.16l-.19,1.37h-17.79l.19-1.37h17.79ZM244.79,20.43l.19-1.28h17.79l-.19,1.28h-17.79ZM245.1,18.29l.15-1.19h17.79l-.15,1.19h-17.79ZM245.41,16.01l.12-.79h17.79l-.12.79h-17.79ZM257.49,24.95l-2.56,18.09h-8.9l2.56-18.09h8.9ZM257.74,23.15l-.19,1.34h-8.9l.19-1.34h8.9Z"/>
    <path class="cls-2" d="M271.79,24.95l-.06.52h5.93l-.62,4.39h-5.93l-.4,2.93h8.9l-1.05,7.32h-16.31l2.16-15.16h7.38ZM272.07,23.15l-.19,1.34h-7.41l.19-1.34h7.41ZM281.24,21.16l-.19,1.37h-16.31l.22-1.37h16.28ZM265.06,20.43l.19-1.28h16.31l-.19,1.28h-16.31ZM265.37,18.29l.15-1.19h16.31l-.15,1.19h-16.31ZM265.67,16.01l.12-.79h16.31l-.12.79h-16.31Z"/>
    <path class="cls-12" d="M290.57,24.95l-.06.52h2.97l.06-.52h7.41l-.06.52-3.4,2.93,2.56,2.93-1.27,8.79h-7.41l.96-6.71-2.53-2.93-1.79,12.57h-7.41l2.56-18.09h7.41ZM290.82,23.15l-.19,1.34h-7.41l.22-1.34h7.38ZM301.5,21.16l-.19,1.37h-17.82l.22-1.37h17.79ZM283.81,20.43l.19-1.28h17.79l-.19,1.28h-17.79ZM284.11,18.29l.15-1.19h16.77l.9,1.04-.03.15h-17.79ZM284.42,16.01l.12-.79h14.83l.68.79h-15.63ZM301.23,23.15l-.19,1.34h-7.44l.19-1.34h7.44Z"/>
  </g>
</svg>