<?xml version="1.0" encoding="UTF-8"?>
<svg id="Ebene_1" data-name="Ebene 1" xmlns="http://www.w3.org/2000/svg" xmlns:xlink="http://www.w3.org/1999/xlink" viewBox="0 0 104 247">
  <defs>
    <style>
      .cls-1 {
        stroke-width: 3.64px;
      }

      .cls-1, .cls-2, .cls-3, .cls-4, .cls-5, .cls-6, .cls-7, .cls-8, .cls-9, .cls-10, .cls-11, .cls-12, .cls-13, .cls-14, .cls-15, .cls-16, .cls-17, .cls-18, .cls-19 {
        fill: none;
      }

      .cls-1, .cls-2, .cls-4, .cls-5, .cls-6, .cls-8, .cls-9, .cls-10, .cls-12, .cls-13, .cls-14, .cls-15, .cls-16, .cls-17, .cls-18, .cls-19 {
        stroke: #1d1d1b;
      }

      .cls-2 {
        stroke-width: 2.93px;
      }

      .cls-3 {
        stroke-width: .25px;
      }

      .cls-3, .cls-11 {
        stroke: #1c1c1c;
        stroke-miterlimit: 10;
      }

      .cls-4 {
        stroke-width: 2.5px;
      }

      .cls-5 {
        stroke-width: 2px;
      }

      .cls-6 {
        stroke-width: 2.21px;
      }

      .cls-7, .cls-20, .cls-21, .cls-22 {
        stroke-width: 0px;
      }

      .cls-9 {
        stroke-width: 4px;
      }

      .cls-10 {
        stroke-width: 1.5px;
      }

      .cls-11, .cls-16 {
        stroke-width: .5px;
      }

      .cls-12 {
        stroke-width: 3.29px;
      }

      .cls-13 {
        stroke-width: .75px;
      }

      .cls-14 {
        stroke-width: 2.57px;
      }

      .cls-15 {
        stroke-width: 1.86px;
      }

      .cls-20 {
        fill: url(#Wellenförmige_feine_Linien);
      }

      .cls-21 {
        fill: url(#Wellenförmige_grobe_Linien);
      }

      .cls-22 {
        fill: #1c1c1c;
      }

      .cls-17 {
        stroke-width: 2.25px;
      }

      .cls-18 {
        stroke-width: 1.75px;
      }

      .cls-19 {
        stroke-width: 1.25px;
      }
    </style>
    <pattern id="Wellenförmige_feine_Linien" data-name="Wellenförmige feine Linien" x="0" y="0" width="60.75" height="72" patternTransform="translate(-187.73 296.98)" patternUnits="userSpaceOnUse" viewBox="0 0 60.75 72">
      <g>
        <rect class="cls-7" width="60.75" height="72"/>
        <line class="cls-4" x1="60.75" x2="60.75" y2="72"/>
        <g>
          <line class="cls-16" x1="30.38" x2="30.38" y2="72"/>
          <line class="cls-13" x1="26.58" x2="26.58" y2="72"/>
          <line class="cls-8" x1="22.78" x2="22.78" y2="72"/>
          <line class="cls-19" x1="18.98" x2="18.98" y2="72"/>
          <line class="cls-10" x1="15.19" x2="15.19" y2="72"/>
          <line class="cls-18" x1="11.39" x2="11.39" y2="72"/>
          <line class="cls-5" x1="7.59" x2="7.59" y2="72"/>
          <line class="cls-17" x1="3.8" x2="3.8" y2="72"/>
          <line class="cls-4" y2="72"/>
          <line class="cls-13" x1="34.17" x2="34.17" y2="72"/>
          <line class="cls-8" x1="37.97" x2="37.97" y2="72"/>
          <line class="cls-19" x1="41.76" x2="41.76" y2="72"/>
          <line class="cls-10" x1="45.56" x2="45.56" y2="72"/>
          <line class="cls-18" x1="49.36" x2="49.36" y2="72"/>
          <line class="cls-5" x1="53.16" x2="53.16" y2="72"/>
          <line class="cls-17" x1="56.95" x2="56.95" y2="72"/>
          <line class="cls-4" x1="60.75" x2="60.75" y2="72"/>
        </g>
        <line class="cls-4" y2="72"/>
      </g>
    </pattern>
    <pattern id="Wellenförmige_grobe_Linien" data-name="Wellenförmige grobe Linien" x="0" y="0" width="60.75" height="72" patternTransform="translate(-187.73 296.98)" patternUnits="userSpaceOnUse" viewBox="0 0 60.75 72">
      <g>
        <rect class="cls-7" width="60.75" height="72"/>
        <line class="cls-9" x1="60.75" x2="60.75" y2="72"/>
        <g>
          <line class="cls-9" y2="72"/>
          <line class="cls-1" x1="4.34" x2="4.34" y2="72"/>
          <line class="cls-12" x1="8.68" x2="8.68" y2="72"/>
          <line class="cls-2" x1="13.02" x2="13.02" y2="72"/>
          <line class="cls-14" x1="17.36" x2="17.36" y2="72"/>
          <line class="cls-6" x1="21.69" x2="21.69" y2="72"/>
          <line class="cls-15" x1="26.03" x2="26.03" y2="72"/>
          <line class="cls-9" x1="60.75" x2="60.75" y2="72"/>
          <line class="cls-1" x1="56.41" x2="56.41" y2="72"/>
          <line class="cls-12" x1="52.07" x2="52.07" y2="72"/>
          <line class="cls-2" x1="47.73" x2="47.73" y2="72"/>
          <line class="cls-14" x1="43.39" x2="43.39" y2="72"/>
          <line class="cls-6" x1="39.05" x2="39.05" y2="72"/>
          <line class="cls-15" x1="34.71" x2="34.71" y2="72"/>
          <line class="cls-10" x1="30.38" x2="30.38" y2="72"/>
        </g>
        <line class="cls-9" y2="72"/>
      </g>
    </pattern>
  </defs>
  <line class="cls-11" x1="74.52" y1="244.48" x2="74.52" y2="81.98"/>
  <line class="cls-11" x1="55.52" y1="75.98" x2="55.52" y2="61.98"/>
  <line class="cls-11" x1="56.52" y1="31.98" x2="56.52" y2="4.48"/>
  <line class="cls-11" x1="29.52" y1="215.98" x2="29.52" y2="145.98"/>
  <line class="cls-3" x1="15.52" y1="80.98" x2="15.52" y2="46.98"/>
  <line class="cls-3" x1="40.02" y1="68.98" x2="40.02" y2="22.98"/>
  <path class="cls-22" d="m67.02,45.48c0,7.35-4.29,13.7-10.5,16.69V28.79c6.21,2.99,10.5,9.34,10.5,16.69Z"/>
  <path class="cls-20" d="m56.52,28.79v33.38c-2.42,1.16-5.13,1.81-8,1.81-10.22,0-18.5-8.28-18.5-18.5s8.28-18.5,18.5-18.5c2.87,0,5.58.65,8,1.81Z"/>
  <circle class="cls-21" cx="15.02" cy="91.98" r="12"/>
  <path class="cls-22" d="m56.52,75.98v88h-.5c-24.3,0-44-19.7-44-44s19.7-44,44-44h.5Z"/>
  <path class="cls-20" d="m100.02,119.98c0,24.13-19.43,43.73-43.5,44v-88c24.07.27,43.5,19.87,43.5,44Z"/>
  <path class="cls-22" d="m75.52,181.79v14.38c-2.66-1.29-4.5-4.03-4.5-7.19s1.84-5.9,4.5-7.19Z"/>
  <path class="cls-21" d="m87.02,188.98c0,4.42-3.58,8-8,8-1.26,0-2.44-.29-3.5-.81v-14.38c1.06-.52,2.24-.81,3.5-.81,4.42,0,8,3.58,8,8Z"/>
</svg>