<?xml version="1.0" encoding="UTF-8"?>
<svg xmlns="http://www.w3.org/2000/svg" version="1.1" viewBox="0 0 936.4 834.1">
  <defs>
    <style>
      .cls-1 {
        fill-rule: evenodd;
      }

      .cls-2 {
        fill: #bfac76;
      }
    </style>
  </defs>
  <!-- Generator: Adobe Illustrator 28.6.0, SVG Export Plug-In . SVG Version: 1.2.0 Build 558)  -->
  <g>
    <g id="Ebene_1">
      <circle class="cls-2" cx="457" cy="444" r="380"/>
      <g id="Layer_1">
        <path id="Mark" class="cls-1" d="M456.4,29.7C238.4,29.7,62.2,207.2,62.2,426.9s112.9,324.2,269.6,376.8c19.6,4,26.8-8.5,26.8-19.1s-.6-40.8-.6-73.7c-109.7,23.7-132.5-47.3-132.5-47.3-17.6-46-43.7-57.9-43.7-57.9-35.9-24.3,2.6-24.3,2.6-24.3,39.8,2.6,60.7,40.8,60.7,40.8,35.2,60.5,92,43.4,114.9,32.9,3.3-25.6,13.7-43.4,24.8-53.3-87.5-9.2-179.5-43.4-179.5-196s15.7-78.9,40.5-106.5c-3.9-9.9-17.6-50.6,3.9-105.2,0,0,33.3-10.5,108.3,40.8,32.1-8.7,65.3-13.1,98.6-13.2,33.3,0,67.2,4.6,98.6,13.2,75.1-51.3,108.3-40.8,108.3-40.8,21.5,54.6,7.8,95.3,3.9,105.2,25.5,27.6,40.5,63.1,40.5,106.5,0,152.6-92,186.1-180.1,196,14.4,12.5,26.8,36.2,26.8,73.6,0,53.3-.6,96-.6,109.1s7.2,23,26.8,19.1c156.3-52.6,269.2-201.2,269.2-376.7.6-219.7-176.2-397.2-393.6-397.2Z"/>
      </g>
    </g>
  </g>
</svg>